<?xml version="1.0" standalone="no"?>
<!DOCTYPE svg PUBLIC "-//W3C//DTD SVG 20010904//EN"
 "http://www.w3.org/TR/2001/REC-SVG-20010904/DTD/svg10.dtd">
<svg version="1.0" xmlns="http://www.w3.org/2000/svg"
 width="1280.000000pt" height="787.000000pt" viewBox="0 0 1280.000000 787.000000"
 preserveAspectRatio="xMidYMid meet">
<metadata>
Created by potrace 1.15, written by Peter Selinger 2001-2017
</metadata>
<g transform="translate(0.000000,787.000000) scale(0.100000,-0.100000)"
fill="#000000" stroke="none">
<path d="M3419 7582 c-13 -10 -62 -27 -109 -37 -465 -98 -999 -400 -1446 -817
-596 -556 -981 -1212 -1095 -1868 -29 -169 -36 -431 -15 -594 20 -152 27 -169
64 -162 35 7 317 43 447 56 305 32 703 30 956 -6 670 -93 1154 -371 1474 -844
77 -116 185 -339 234 -487 157 -471 159 -1041 6 -1567 -82 -284 -221 -566
-388 -791 -72 -97 -85 -121 -69 -137 9 -9 23 -9 59 0 27 6 116 27 198 47 581
139 1090 220 1710 272 268 22 1118 25 1380 5 515 -40 965 -102 1434 -197 198
-41 216 -43 243 -29 16 8 35 29 43 47 8 19 22 137 35 296 112 1404 401 2366
900 2996 84 106 284 304 390 387 473 366 1046 546 1868 584 138 6 143 7 172
34 17 16 30 38 30 52 0 14 -149 229 -401 578 -220 305 -409 565 -420 578 -19
22 -25 23 -97 17 -299 -25 -1427 -162 -2558 -310 l-501 -65 -124 -59 c-339
-161 -892 -329 -1284 -391 -162 -26 -406 -36 -499 -22 -37 6 -70 13 -73 15 -2
3 7 49 21 103 47 191 61 336 46 484 -32 306 -187 522 -475 660 -121 58 -187
82 -325 114 -367 87 -821 98 -1539 36 -128 -12 -235 -19 -237 -17 -2 2 -14 39
-26 83 -31 112 -31 407 0 604 58 369 58 370 17 370 -12 0 -33 -8 -46 -18z"/>
<path d="M1640 3874 c-397 -50 -780 -232 -1068 -508 -294 -283 -471 -608 -548
-1011 -26 -132 -26 -455 0 -590 141 -750 686 -1291 1451 -1442 70 -13 141 -17
320 -17 200 0 245 3 344 23 409 81 776 290 1049 594 215 241 381 574 438 882
27 143 27 511 0 640 -147 715 -668 1241 -1391 1402 -95 21 -140 25 -335 28
-124 2 -241 1 -260 -1z"/>
<path d="M10910 3819 c-542 -56 -1019 -348 -1333 -817 -170 -255 -267 -539
-298 -874 -20 -223 11 -470 90 -706 204 -608 702 -1044 1330 -1164 168 -32
447 -32 611 0 678 133 1220 626 1416 1287 55 185 68 285 68 515 0 182 -3 232
-22 325 -51 253 -127 446 -249 635 -305 470 -755 745 -1312 800 -117 11 -179
11 -301 -1z"/>
</g>
</svg>
