<svg width="28" height="40" xmlns="http://www.w3.org/2000/svg" fill="#004880" xml:space="preserve">
 <g>
  <title>Layer 1</title>
  <g stroke="null" id="svg_1">
   <g stroke="null" id="Layer_1_117_">
    <g stroke="null" id="svg_2">
     <path stroke="null" d="m13.8689,25.85502c-1.80564,0 -3.28298,1.56993 -3.28298,3.48873l0,7.06467c0,1.9188 1.47734,3.48873 3.28298,3.48873s3.28298,-1.56993 3.28298,-3.48873l0,-7.06467c0,-1.9188 -1.47728,-3.48873 -3.28298,-3.48873z" id="svg_3"/>
     <path stroke="null" d="m25.76971,4.48657l-6.31974,0c-0.73867,-2.52933 -2.95462,-4.36091 -5.58107,-4.36091s-4.8424,1.83158 -5.58107,4.36091l-6.23767,0c-0.90282,0 -1.64149,0.78496 -1.64149,1.74436s0.73867,1.74436 1.64149,1.74436l6.31974,0l0,0c0.41037,1.48271 1.31319,2.70376 2.54431,3.48873c-4.43203,1.39549 -7.71501,5.7564 -7.71501,10.90227l0,9.15791c0,1.56993 1.23112,2.8782 2.70846,2.8782l2.21601,0l0,-4.97143c0,-3.40158 2.62639,-6.19249 5.8273,-6.19249c3.20091,0 5.8273,2.79098 5.8273,6.19249l0,4.97143l2.21601,0c1.47734,0 2.70846,-1.30827 2.70846,-2.8782l0,-9.07069c0,-5.14594 -3.28298,-9.594 -7.71508,-10.90227c1.23112,-0.78496 2.13394,-2.00602 2.54431,-3.48873l0,0l6.31974,0c0.90282,0 1.64149,-0.78496 1.64149,-1.74436c-0.08201,-1.04662 -0.82068,-1.83158 -1.7235,-1.83158zm-11.90082,5.32031c-1.80564,0 -3.28298,-1.56993 -3.28298,-3.48873c0,-1.9188 1.47734,-3.48873 3.28298,-3.48873s3.28298,1.56993 3.28298,3.48873c0.08207,1.9188 -1.39527,3.48873 -3.28298,3.48873z" id="svg_4"/>
    </g>
   </g>
  </g>
  <g id="svg_5"/>
  <g id="svg_6"/>
  <g id="svg_7"/>
  <g id="svg_8"/>
  <g id="svg_9"/>
  <g id="svg_10"/>
  <g id="svg_11"/>
  <g id="svg_12"/>
  <g id="svg_13"/>
  <g id="svg_14"/>
  <g id="svg_15"/>
  <g id="svg_16"/>
  <g id="svg_17"/>
  <g id="svg_18"/>
  <g id="svg_19"/>
  <ellipse stroke="null" ry="2.90878" rx="2.69504" id="svg_21" cy="6.31303" cx="13.92908" fill="#00ff00"/>
  <ellipse rx="0.03546" id="svg_22" cy="6.87943" cx="14.24823" stroke="null" fill="#00ff00"/>
 </g>

</svg>