<svg xmlns="http://www.w3.org/2000/svg" width="35" height="25" viewBox="0 0 40.402 28.594"><defs><style>.a{fill:#004880;}.b{fill:#08f33f;}</style></defs><g transform="translate(-2958 -1231)"><g transform="translate(2958 1231)"><g transform="translate(0 0)"><path class="a" d="M40.17,14.555a1.039,1.039,0,0,0-.8-.382H35.436c-.97-2.559-2.234-5.067-3.671-6.013-4.971-3.27-18.155-3.27-23.126,0-1.438.948-2.7,3.458-3.672,6.013H1.034A1.035,1.035,0,0,0,.022,15.418L.6,18.24a1.034,1.034,0,0,0,1.013.824H2.782A6.985,6.985,0,0,0,1.1,23.629a6.839,6.839,0,0,0,2.161,5.135c.016.013.031.023.046.036v3.949A1.553,1.553,0,0,0,4.863,34.3H8.49a1.553,1.553,0,0,0,1.552-1.552V31.162H30.36v1.587A1.553,1.553,0,0,0,31.912,34.3h3.627a1.554,1.554,0,0,0,1.552-1.552V28.878a7.1,7.1,0,0,0,.453-9.816h1.242a1.031,1.031,0,0,0,1.013-.826l.583-2.821A1.043,1.043,0,0,0,40.17,14.555Zm-29.827-3.8c3.962-2.608,15.754-2.608,19.714,0,.77.5,1.76,2.546,2.667,5.045H7.678C8.583,13.3,9.573,11.258,10.343,10.751ZM5.7,24.018a3.053,3.053,0,1,1,3.053,3.053A3.052,3.052,0,0,1,5.7,24.018Zm25.985,3.053a3.052,3.052,0,1,1,3.053-3.053A3.053,3.053,0,0,1,31.687,27.071Z" transform="translate(0 -5.707)"/></g></g><ellipse class="b" cx="3.5" cy="3" rx="3.5" ry="3" transform="translate(2963.5 1246)"/><circle class="b" cx="3" cy="3" r="3" transform="translate(2986.5 1246)"/></g></svg>
