<svg xmlns="http://www.w3.org/2000/svg" xmlns:xlink="http://www.w3.org/1999/xlink" width="254.334" height="176.908" viewBox="0 0 254.334 176.908"><defs><style>.a{fill:url(#a);}.b{fill:url(#b);}.c{fill:url(#c);}.d{fill:#ff2c00;}.e{fill:url(#d);}.f{fill:url(#e);}.g{fill:#004880;}.h{fill:url(#f);}</style><linearGradient id="a" x1="-0.073" y1="0.497" x2="4.607" y2="0.526" gradientUnits="objectBoundingBox"><stop offset="0.004" stop-color="#004880"/><stop offset="1" stop-color="#0090d2"/></linearGradient><linearGradient id="b" x1="-1.807" y1="0.486" x2="5.188" y2="0.529" xlink:href="#a"/><linearGradient id="c" x1="-2.869" y1="0.479" x2="4.096" y2="0.521" xlink:href="#a"/><linearGradient id="d" x1="-5.594" y1="0.466" x2="1.997" y2="0.51" xlink:href="#a"/><linearGradient id="e" x1="-9.929" y1="0.472" x2="1.028" y2="0.502" xlink:href="#a"/><linearGradient id="f" y1="0.5" x2="1" y2="0.5" gradientUnits="objectBoundingBox"><stop offset="0.003" stop-color="#00a6e4"/><stop offset="1" stop-color="#00fffb"/></linearGradient></defs><g transform="translate(-339.001 -363.559)"><path class="a" d="M347.952,556.248a5.536,5.536,0,0,1,3.836,1.219,8.809,8.809,0,0,1,2.182,3.184L365.4,588.8l11.508-27.831a8.045,8.045,0,0,1,2.633-3.617,6.164,6.164,0,0,1,3.61-1.1,22.171,22.171,0,0,1,3.009.2,9.246,9.246,0,0,1,2.182.511l3.61,52.283h-9.778l-2.332-34.907-10.23,23.9h-8.65l-9.929-22.879-2.182,33.885H339l3.686-52.283a16.99,16.99,0,0,1,2.219-.471A19.111,19.111,0,0,1,347.952,556.248Z" transform="translate(0 -95.644)"/><path class="b" d="M495.25,604.382a27,27,0,0,1-.983,7.318,16.323,16.323,0,0,1-3.224,6.176,16.012,16.012,0,0,1-5.779,4.269,23.9,23.9,0,0,1-17.1.038,15.544,15.544,0,0,1-5.7-4.193,16.731,16.731,0,0,1-3.224-6.1,25.6,25.6,0,0,1-1.022-7.281,22.7,22.7,0,0,1,1.179-7.357,17.753,17.753,0,0,1,3.5-6.1A16.244,16.244,0,0,1,468.755,587a20.733,20.733,0,0,1,8.255-1.525A21.108,21.108,0,0,1,485.462,587a15.076,15.076,0,0,1,5.661,4.117,16.3,16.3,0,0,1,3.145,6.022A26.2,26.2,0,0,1,495.25,604.382Zm-10.692.077a26.246,26.246,0,0,0-.317-4.079,10.33,10.33,0,0,0-1.185-3.545,6.622,6.622,0,0,0-6.162-3.43,6.957,6.957,0,0,0-3.833.991,7.466,7.466,0,0,0-2.449,2.554,11.408,11.408,0,0,0-1.3,3.546,20.614,20.614,0,0,0-.395,4.04,24.122,24.122,0,0,0,.355,4.117,12.3,12.3,0,0,0,1.225,3.7,6.624,6.624,0,0,0,6.243,3.621,7.1,7.1,0,0,0,3.911-.991,6.933,6.933,0,0,0,2.409-2.63,11.577,11.577,0,0,0,1.185-3.7A27.476,27.476,0,0,0,484.558,604.458Z" transform="translate(-59.176 -110.152)"/><path class="c" d="M567.091,623.746h-11.4l-12.972-37.238a15.571,15.571,0,0,1,5.66-1.032,7.529,7.529,0,0,1,3.106.556,5.9,5.9,0,0,1,2.044,1.508,7.5,7.5,0,0,1,1.337,2.342q.511,1.39.983,3.057l5.66,20.485,5.976-20.724a28.782,28.782,0,0,1,1.022-3.017,8.776,8.776,0,0,1,1.337-2.3,4.91,4.91,0,0,1,1.926-1.429,7.237,7.237,0,0,1,2.791-.476,13.657,13.657,0,0,1,2.988.318,14.2,14.2,0,0,1,2.359.715Z" transform="translate(-101.119 -110.152)"/><path class="d" d="M639.006,562a5.326,5.326,0,0,1-1.69,4.089,6.05,6.05,0,0,1-8.137,0A5.387,5.387,0,0,1,627.528,562a5.518,5.518,0,0,1,1.651-4.127,5.94,5.94,0,0,1,8.137,0A5.454,5.454,0,0,1,639.006,562Zm-.079,46.928a4.7,4.7,0,0,1-1.415.236q-1.1.077-2.359.079a13.324,13.324,0,0,1-2.83-.275,5.014,5.014,0,0,1-2.162-1.021,4.945,4.945,0,0,1-1.415-2.005,8.63,8.63,0,0,1-.511-3.223V571.272a3.582,3.582,0,0,1,1.18-.2q1.179-.117,2.438-.117a13.594,13.594,0,0,1,2.516.236,6.236,6.236,0,0,1,2.28.9,4.873,4.873,0,0,1,1.651,1.887,6.957,6.957,0,0,1,.629,3.184Z" transform="translate(-143.215 -95.652)"/><path class="d" d="M679.348,562a5.327,5.327,0,0,1-1.691,4.089,6.05,6.05,0,0,1-8.137,0A5.387,5.387,0,0,1,667.869,562a5.518,5.518,0,0,1,1.651-4.127,5.94,5.94,0,0,1,8.137,0A5.454,5.454,0,0,1,679.348,562Zm-.079,46.928a4.694,4.694,0,0,1-1.415.236q-1.1.077-2.359.079a13.324,13.324,0,0,1-2.83-.275,5.013,5.013,0,0,1-2.162-1.021,4.944,4.944,0,0,1-1.415-2.005,8.633,8.633,0,0,1-.511-3.223V571.272a3.577,3.577,0,0,1,1.179-.2q1.179-.117,2.438-.117a13.593,13.593,0,0,1,2.516.236,6.235,6.235,0,0,1,2.28.9,4.868,4.868,0,0,1,1.651,1.887,6.957,6.957,0,0,1,.629,3.184Z" transform="translate(-163.239 -95.652)"/><path class="e" d="M716.887,623.728H706.021V586.541c.265-.051.582-.1.951-.158q.475-.077,1.11-.117c.422-.026.925-.039,1.506-.039a9.986,9.986,0,0,1,4.4.9,4.277,4.277,0,0,1,2.339,3.184,12.739,12.739,0,0,1,4.208-3.342,16,16,0,0,1,7.576-1.533q5.69,0,8.416,2.2a10.03,10.03,0,0,1,3.527,5.818,24.6,24.6,0,0,1,.521,3.931q.119,2.122.121,4.167v22.17H729.83v-21.7q0-1.729-.121-3.224a7.04,7.04,0,0,0-.643-2.555,3.64,3.64,0,0,0-1.688-1.651,7.35,7.35,0,0,0-3.256-.589,10.128,10.128,0,0,0-5.106,1.218,3.524,3.524,0,0,0-2.13,3.027Z" transform="translate(-182.177 -110.134)"/><path class="f" d="M798.943,602.462a13.767,13.767,0,0,1-.691-3.28q-.155-1.717-.154-3.436V556.593q.536-.077,1.152-.156.536-.077,1.152-.117t1.229-.039a13.073,13.073,0,0,1,2.458.234,5.667,5.667,0,0,1,2.227.937,5.137,5.137,0,0,1,1.613,1.913,7.017,7.017,0,0,1,.614,3.163v8.386H819.3v7.965H808.543v16.652q0,5.448,4.378,5.446a5.878,5.878,0,0,0,2.035-.351,12.044,12.044,0,0,0,1.728-.781,9.387,9.387,0,0,0,1.344-.9q.576-.468.806-.7a26.4,26.4,0,0,1,1.767,2.975,5.409,5.409,0,0,1,.614,2.359,3.16,3.16,0,0,1-.806,2.011,7.978,7.978,0,0,1-2.266,1.814,13.993,13.993,0,0,1-3.533,1.34,18.909,18.909,0,0,1-4.532.512q-4.762,0-7.411-1.874A9.943,9.943,0,0,1,798.943,602.462Z" transform="translate(-227.881 -95.661)"/><g transform="translate(362.095 525.043)"><path class="g" d="M386.481,684.271a.925.925,0,0,1,.585.171,1.274,1.274,0,0,1,.359.462l3.251,6.91,3.251-6.876a1.027,1.027,0,0,1,.481-.539,1.387,1.387,0,0,1,.568-.128,2.724,2.724,0,0,1,.437.034,3.325,3.325,0,0,1,.332.068l.821,11.392h-1.433l-.63-9-3.111,6.4h-1.486l-2.954-6.107-.647,8.707h-1.451l.874-11.392q.122-.034.315-.068A2.521,2.521,0,0,1,386.481,684.271Z" transform="translate(-384.855 -684.234)"/><path class="g" d="M425.17,694.738a6.37,6.37,0,0,1-.21,1.642,3.95,3.95,0,0,1-.673,1.4,3.36,3.36,0,0,1-1.2.973,3.976,3.976,0,0,1-1.783.365,4.082,4.082,0,0,1-1.774-.348,3.194,3.194,0,0,1-1.18-.938,3.852,3.852,0,0,1-.664-1.381,6.44,6.44,0,0,1-.21-1.66,5.48,5.48,0,0,1,.245-1.651,3.9,3.9,0,0,1,.734-1.364,3.588,3.588,0,0,1,1.215-.93,3.906,3.906,0,0,1,1.7-.347,3.983,3.983,0,0,1,1.748.347,3.268,3.268,0,0,1,1.171.93,3.786,3.786,0,0,1,.664,1.347A6.08,6.08,0,0,1,425.17,694.738Zm-1.556,0a5.947,5.947,0,0,0-.1-1.069,2.954,2.954,0,0,0-.342-.956,1.89,1.89,0,0,0-.684-.687,2.214,2.214,0,0,0-1.141-.26,2.186,2.186,0,0,0-1.114.26,2.011,2.011,0,0,0-.711.687,3,3,0,0,0-.377.956,5.068,5.068,0,0,0-.114,1.069,6.384,6.384,0,0,0,.1,1.095,2.922,2.922,0,0,0,.36,1,2.2,2.2,0,0,0,.7.73,2.013,2.013,0,0,0,1.123.287,2.139,2.139,0,0,0,1.158-.287,2,2,0,0,0,.7-.73,3.154,3.154,0,0,0,.342-1A6.386,6.386,0,0,0,423.615,694.738Z" transform="translate(-401.048 -687.325)"/><path class="g" d="M444.567,699.063h-1.521l-3.076-8.15a2.294,2.294,0,0,1,.787-.139.93.93,0,0,1,.778.321,2.967,2.967,0,0,1,.446.93l1.87,5.526,1.905-5.457a3.822,3.822,0,0,1,.454-.973.914.914,0,0,1,.8-.347,1.722,1.722,0,0,1,.393.043,1.193,1.193,0,0,1,.306.113Z" transform="translate(-412.212 -687.462)"/><path class="g" d="M465.32,685.264a.907.907,0,0,1-.271.669.976.976,0,0,1-1.346,0,.9.9,0,0,1-.271-.669.977.977,0,0,1,.271-.713.953.953,0,0,1,1.346,0A.981.981,0,0,1,465.32,685.264Zm-1.626,2.249h.105a.7.7,0,0,0,.1-.009.857.857,0,0,1,.114-.009,1.358,1.358,0,0,1,.831.252,1.067,1.067,0,0,1,.34.912V694.2a1.272,1.272,0,0,0,.149.713q.149.208.69.208v.626a2.426,2.426,0,0,1-.428.087,4.2,4.2,0,0,1-.533.035,1.569,1.569,0,0,1-.778-.157.988.988,0,0,1-.4-.417,1.564,1.564,0,0,1-.158-.582q-.026-.321-.026-.634Z" transform="translate(-423.858 -684.235)"/><path class="g" d="M479.356,694.116c0,.174.006.322.018.443a.664.664,0,0,0,.1.3.467.467,0,0,0,.245.182,1.453,1.453,0,0,0,.48.061v.626a2.42,2.42,0,0,1-.428.087,4.2,4.2,0,0,1-.533.035,1.568,1.568,0,0,1-.778-.157.992.992,0,0,1-.4-.417,1.554,1.554,0,0,1-.157-.582q-.026-.321-.026-.634v-9.808h.1a.769.769,0,0,0,.1-.009.785.785,0,0,1,.113-.009,1.357,1.357,0,0,1,.831.252,1.067,1.067,0,0,1,.341.912Z" transform="translate(-431.025 -684.218)"/><path class="g" d="M493.155,685.264a.905.905,0,0,1-.271.669.976.976,0,0,1-1.346,0,.905.905,0,0,1-.271-.669.979.979,0,0,1,.271-.713.953.953,0,0,1,1.346,0A.979.979,0,0,1,493.155,685.264Zm-1.626,2.249h.105a.7.7,0,0,0,.1-.009.863.863,0,0,1,.114-.009,1.358,1.358,0,0,1,.83.252,1.066,1.066,0,0,1,.34.912V694.2a1.271,1.271,0,0,0,.149.713q.148.208.69.208v.626a2.441,2.441,0,0,1-.429.087,4.2,4.2,0,0,1-.533.035,1.569,1.569,0,0,1-.778-.157.988.988,0,0,1-.4-.417,1.554,1.554,0,0,1-.157-.582q-.026-.321-.027-.634Z" transform="translate(-437.674 -684.235)"/><path class="g" d="M512.16,695.75h-1.45v-.709q-.14.141-.35.317a2.437,2.437,0,0,1-.5.317,3.564,3.564,0,0,1-.655.238,3.151,3.151,0,0,1-.8.1,3.848,3.848,0,0,1-1.311-.226,2.889,2.889,0,0,1-1.111-.721,3.464,3.464,0,0,1-.76-1.3,7.014,7.014,0,0,1,.009-3.953,3.906,3.906,0,0,1,.769-1.364,3.059,3.059,0,0,1,1.119-.791,3.455,3.455,0,0,1,1.32-.26,3.108,3.108,0,0,1,1.337.26,3.475,3.475,0,0,1,.9.591v-3.986h.1a.761.761,0,0,0,.1-.009.792.792,0,0,1,.114-.009,1.393,1.393,0,0,1,.831.243,1.043,1.043,0,0,1,.34.9Zm-5.663-4.144a6.916,6.916,0,0,0,.1,1.247,2.856,2.856,0,0,0,.369,1,1.839,1.839,0,0,0,.693.659,2.206,2.206,0,0,0,1.063.234,2.8,2.8,0,0,0,.781-.1,2.662,2.662,0,0,0,.623-.26,1.228,1.228,0,0,0,.4-.364.74.74,0,0,0,.141-.416v-4.055h.017q-.106-.1-.272-.26a2.018,2.018,0,0,0-.421-.295,2.862,2.862,0,0,0-.588-.234,2.748,2.748,0,0,0-.754-.1,1.9,1.9,0,0,0-1.58.745A3.544,3.544,0,0,0,506.5,691.606Z" transform="translate(-444.462 -684.218)"/><path class="g" d="M535.549,696.963a4.632,4.632,0,0,0,.035.652.69.69,0,0,0,.131.347.453.453,0,0,0,.262.148,2.113,2.113,0,0,0,.428.035v.7a2.443,2.443,0,0,1-.385.087,3.109,3.109,0,0,1-.471.035,2,2,0,0,1-.956-.217.946.946,0,0,1-.478-.774,3.985,3.985,0,0,1-1.046.739,3.607,3.607,0,0,1-1.6.3,4.176,4.176,0,0,1-.915-.1,2.192,2.192,0,0,1-.836-.383,2.133,2.133,0,0,1-.618-.747,2.586,2.586,0,0,1-.244-1.2,2.282,2.282,0,0,1,.462-1.477,3.288,3.288,0,0,1,1.141-.9,5.14,5.14,0,0,1,1.455-.452,11.261,11.261,0,0,1,1.42-.139h.366a3.362,3.362,0,0,1,.366.018v-.261a1.7,1.7,0,0,0-.376-1.191,1.946,1.946,0,0,0-1.442-.408,3.857,3.857,0,0,0-1.329.2,4.767,4.767,0,0,0-1.049.547h-.174a2.634,2.634,0,0,1-.236-.487,1.289,1.289,0,0,1-.1-.417.546.546,0,0,1,.279-.426,2.916,2.916,0,0,1,.726-.357,5.763,5.763,0,0,1,.988-.243,6.729,6.729,0,0,1,1.066-.087,4.948,4.948,0,0,1,1.488.191,2.306,2.306,0,0,1,.969.574,2.118,2.118,0,0,1,.522.956,5.231,5.231,0,0,1,.151,1.321Zm-1.469-2.225h-.5a9.5,9.5,0,0,0-1.131.07,4.043,4.043,0,0,0-1.044.261,1.991,1.991,0,0,0-.766.53,1.314,1.314,0,0,0-.3.895,1.454,1.454,0,0,0,.313.921,1.412,1.412,0,0,0,1.166.4,2.826,2.826,0,0,0,.861-.13,3.327,3.327,0,0,0,.722-.321,1.893,1.893,0,0,0,.5-.417.7.7,0,0,0,.183-.434Z" transform="translate(-456.331 -687.325)"/><path class="g" d="M559.432,695.75h-1.451v-.709q-.14.141-.349.317a2.447,2.447,0,0,1-.5.317,3.583,3.583,0,0,1-.656.238,3.151,3.151,0,0,1-.8.1,3.848,3.848,0,0,1-1.311-.226,2.891,2.891,0,0,1-1.11-.721,3.458,3.458,0,0,1-.76-1.3,7.015,7.015,0,0,1,.009-3.953,3.906,3.906,0,0,1,.769-1.364,3.063,3.063,0,0,1,1.119-.791,3.456,3.456,0,0,1,1.32-.26,3.108,3.108,0,0,1,1.337.26,3.474,3.474,0,0,1,.9.591v-3.986h.1a.767.767,0,0,0,.1-.009.787.787,0,0,1,.113-.009,1.392,1.392,0,0,1,.83.243,1.043,1.043,0,0,1,.341.9Zm-5.663-4.144a6.922,6.922,0,0,0,.1,1.247,2.868,2.868,0,0,0,.369,1,1.84,1.84,0,0,0,.694.659,2.2,2.2,0,0,0,1.062.234,2.8,2.8,0,0,0,.781-.1,2.651,2.651,0,0,0,.623-.26,1.23,1.23,0,0,0,.4-.364.742.742,0,0,0,.141-.416v-4.055h.017c-.07-.07-.161-.156-.272-.26a2.037,2.037,0,0,0-.422-.295,2.859,2.859,0,0,0-.588-.234,2.755,2.755,0,0,0-.755-.1,1.893,1.893,0,0,0-1.579.745A3.54,3.54,0,0,0,553.768,691.606Z" transform="translate(-467.926 -684.218)"/><path class="g" d="M591.356,695.729H589.8v-11.5a.593.593,0,0,0,.141-.017,1.112,1.112,0,0,0,.142-.009,1.377,1.377,0,0,1,.159-.009,1.531,1.531,0,0,1,.344.043,1.181,1.181,0,0,1,.363.157.855.855,0,0,1,.292.33,1.207,1.207,0,0,1,.115.565Z" transform="translate(-486.583 -684.197)"/><path class="g" d="M603.91,690.637a1.353,1.353,0,0,1,.726.2.9.9,0,0,1,.393.686,3.709,3.709,0,0,1,1.092-.712,3.935,3.935,0,0,1,1.635-.313,2.782,2.782,0,0,1,1.818.521,2.4,2.4,0,0,1,.822,1.3,3.875,3.875,0,0,1,.1.773c.011.284.018.56.018.825v4.936h-1.486v-4.883q0-.33-.009-.635a1.963,1.963,0,0,0-.1-.565,1.149,1.149,0,0,0-.507-.7,2.149,2.149,0,0,0-1.136-.243,2.861,2.861,0,0,0-1.591.391,1.068,1.068,0,0,0-.594.843v5.787h-1.486v-8.2h.088a.679.679,0,0,0,.1-.009A.853.853,0,0,1,603.91,690.637Z" transform="translate(-493.439 -687.325)"/><path class="g" d="M628.118,694.509a2.559,2.559,0,0,1-.149-.721c-.018-.261-.026-.518-.026-.774v-8.766h.1a.693.693,0,0,0,.1-.009.767.767,0,0,1,.113-.009,1.411,1.411,0,0,1,.821.241,1,1,0,0,1,.349.88v2.013h2.6v1.269h-2.6v4.484q0,1.425,1.136,1.425a1.43,1.43,0,0,0,.525-.1,2.222,2.222,0,0,0,.437-.226,2.705,2.705,0,0,0,.323-.252,1.25,1.25,0,0,0,.166-.174,4.8,4.8,0,0,1,.359.5.9.9,0,0,1,.148.469.54.54,0,0,1-.157.339,1.608,1.608,0,0,1-.437.338,2.856,2.856,0,0,1-.69.261,3.65,3.65,0,0,1-.9.1,2.66,2.66,0,0,1-1.451-.347A1.9,1.9,0,0,1,628.118,694.509Z" transform="translate(-505.516 -684.214)"/><path class="g" d="M767.612,694.509a2.559,2.559,0,0,1-.149-.721c-.018-.261-.026-.518-.026-.774v-8.766h.1a.691.691,0,0,0,.1-.009.773.773,0,0,1,.113-.009,1.413,1.413,0,0,1,.822.241,1,1,0,0,1,.349.88v2.013h2.6v1.269h-2.6v4.484q0,1.425,1.136,1.425a1.425,1.425,0,0,0,.524-.1,2.213,2.213,0,0,0,.437-.226,2.78,2.78,0,0,0,.323-.252,1.242,1.242,0,0,0,.166-.174,4.789,4.789,0,0,1,.359.5.905.905,0,0,1,.149.469.538.538,0,0,1-.158.339,1.6,1.6,0,0,1-.437.338,2.865,2.865,0,0,1-.69.261,3.657,3.657,0,0,1-.9.1,2.659,2.659,0,0,1-1.451-.347A1.889,1.889,0,0,1,767.612,694.509Z" transform="translate(-574.756 -684.214)"/><path class="g" d="M648.641,697.849a3.318,3.318,0,0,0,.882-.1,2.779,2.779,0,0,0,.647-.261,3.072,3.072,0,0,0,.463-.321,3.323,3.323,0,0,0,.315-.3,3.566,3.566,0,0,1,.34.521,1.026,1.026,0,0,1,.149.435.578.578,0,0,1-.087.29,1.128,1.128,0,0,1-.3.308,3.516,3.516,0,0,1-1.031.5,5.487,5.487,0,0,1-3.068-.032,3.288,3.288,0,0,1-1.273-.756,3.607,3.607,0,0,1-.865-1.364,5.858,5.858,0,0,1-.318-2.059,5.038,5.038,0,0,1,.323-1.894,3.8,3.8,0,0,1,.848-1.312,3.306,3.306,0,0,1,1.2-.756,4.058,4.058,0,0,1,1.39-.243,3.627,3.627,0,0,1,1.53.3,2.869,2.869,0,0,1,1.04.791,3.27,3.27,0,0,1,.594,1.147,4.724,4.724,0,0,1,.192,1.347q0,.243-.009.5a4.123,4.123,0,0,1-.044.478h-5.506a3.366,3.366,0,0,0,.673,2.03A2.312,2.312,0,0,0,648.641,697.849Zm1.486-3.91a3.717,3.717,0,0,0-.1-.869,1.912,1.912,0,0,0-.322-.7,1.548,1.548,0,0,0-.6-.478,2.162,2.162,0,0,0-.914-.174,2,2,0,0,0-1.488.591,2.473,2.473,0,0,0-.653,1.634Z" transform="translate(-513.733 -687.325)"/><path class="g" d="M669.689,694.116c0,.174.005.322.018.443a.664.664,0,0,0,.1.3.468.468,0,0,0,.245.182,1.455,1.455,0,0,0,.48.061v.626a2.417,2.417,0,0,1-.428.087,4.2,4.2,0,0,1-.533.035,1.568,1.568,0,0,1-.778-.157.992.992,0,0,1-.4-.417,1.563,1.563,0,0,1-.157-.582q-.026-.321-.026-.634v-9.808h.1a.767.767,0,0,0,.1-.009.786.786,0,0,1,.113-.009,1.357,1.357,0,0,1,.831.252,1.067,1.067,0,0,1,.341.912Z" transform="translate(-525.5 -684.218)"/><path class="g" d="M683.488,685.264a.905.905,0,0,1-.271.669.976.976,0,0,1-1.346,0,.905.905,0,0,1-.271-.669.979.979,0,0,1,.271-.713.953.953,0,0,1,1.346,0A.979.979,0,0,1,683.488,685.264Zm-1.625,2.249h.1a.7.7,0,0,0,.1-.009.864.864,0,0,1,.114-.009,1.356,1.356,0,0,1,.83.252,1.066,1.066,0,0,1,.341.912V694.2a1.271,1.271,0,0,0,.149.713q.148.208.69.208v.626a2.441,2.441,0,0,1-.429.087,4.192,4.192,0,0,1-.533.035,1.569,1.569,0,0,1-.778-.157.988.988,0,0,1-.4-.417,1.553,1.553,0,0,1-.157-.582q-.026-.321-.026-.634Z" transform="translate(-532.149 -684.235)"/><path class="g" d="M702.493,698.283a8.736,8.736,0,0,1-.183,1.886,3.412,3.412,0,0,1-.638,1.4,2.869,2.869,0,0,1-1.224.877,5.318,5.318,0,0,1-1.94.3,5.833,5.833,0,0,1-1.433-.156,4.229,4.229,0,0,1-1.014-.382,1.615,1.615,0,0,1-.446-.365.6.6,0,0,1-.131-.365.887.887,0,0,1,.2-.5,5.435,5.435,0,0,1,.358-.452,1.278,1.278,0,0,0,.228.2,3.792,3.792,0,0,0,.516.322,4.117,4.117,0,0,0,.76.3,3.364,3.364,0,0,0,.961.13,3.172,3.172,0,0,0,1.337-.235,1.79,1.79,0,0,0,.769-.663,2.5,2.5,0,0,0,.35-1.02,9.862,9.862,0,0,0,.079-1.291v-.122c-.093.094-.21.2-.349.317a2.429,2.429,0,0,1-.5.317,3.558,3.558,0,0,1-.655.238,3.151,3.151,0,0,1-.8.1,3.848,3.848,0,0,1-1.311-.226,2.891,2.891,0,0,1-1.111-.721,3.463,3.463,0,0,1-.76-1.3,6.061,6.061,0,0,1-.28-1.972,6.239,6.239,0,0,1,.28-1.981,3.875,3.875,0,0,1,.751-1.364,3,3,0,0,1,1.1-.791,3.437,3.437,0,0,1,1.329-.26,3.363,3.363,0,0,1,1.38.252,2.947,2.947,0,0,1,.927.635.835.835,0,0,1,.4-.565,1.215,1.215,0,0,1,.612-.182,1.339,1.339,0,0,1,.157.009,1.089,1.089,0,0,0,.14.009.575.575,0,0,0,.139.018Zm-5.663-3.571a6.917,6.917,0,0,0,.1,1.247,2.855,2.855,0,0,0,.369,1,1.839,1.839,0,0,0,.694.659,2.2,2.2,0,0,0,1.062.234,2.8,2.8,0,0,0,.781-.1,2.65,2.65,0,0,0,.623-.26,1.229,1.229,0,0,0,.4-.364.739.739,0,0,0,.141-.416v-4.055h.017q-.106-.1-.273-.26a2.012,2.012,0,0,0-.421-.295,2.864,2.864,0,0,0-.588-.234,2.747,2.747,0,0,0-.755-.1,1.9,1.9,0,0,0-1.58.745A3.544,3.544,0,0,0,696.83,694.712Z" transform="translate(-538.937 -687.325)"/><path class="g" d="M723.538,697.849a3.325,3.325,0,0,0,.883-.1,2.784,2.784,0,0,0,.647-.261,3.072,3.072,0,0,0,.463-.321,3.323,3.323,0,0,0,.315-.3,3.572,3.572,0,0,1,.341.521,1.028,1.028,0,0,1,.149.435.578.578,0,0,1-.087.29,1.129,1.129,0,0,1-.3.308,3.517,3.517,0,0,1-1.031.5,5.487,5.487,0,0,1-3.068-.032,3.288,3.288,0,0,1-1.273-.756,3.607,3.607,0,0,1-.865-1.364,5.859,5.859,0,0,1-.318-2.059,5.039,5.039,0,0,1,.323-1.894,3.805,3.805,0,0,1,.848-1.312,3.305,3.305,0,0,1,1.2-.756,4.058,4.058,0,0,1,1.389-.243,3.626,3.626,0,0,1,1.53.3,2.869,2.869,0,0,1,1.04.791,3.269,3.269,0,0,1,.594,1.147,4.724,4.724,0,0,1,.192,1.347q0,.243-.009.5a4.1,4.1,0,0,1-.044.478h-5.506a3.362,3.362,0,0,0,.673,2.03A2.312,2.312,0,0,0,723.538,697.849Zm1.486-3.91a3.714,3.714,0,0,0-.1-.869,1.909,1.909,0,0,0-.322-.7,1.549,1.549,0,0,0-.6-.478,2.166,2.166,0,0,0-.914-.174,2,2,0,0,0-1.488.591,2.47,2.47,0,0,0-.652,1.634Z" transform="translate(-550.91 -687.325)"/><path class="g" d="M743.432,690.637a1.353,1.353,0,0,1,.726.2.9.9,0,0,1,.393.686,3.706,3.706,0,0,1,1.093-.712,3.931,3.931,0,0,1,1.634-.313,2.781,2.781,0,0,1,1.818.521,2.4,2.4,0,0,1,.822,1.3,3.88,3.88,0,0,1,.1.773c.011.284.018.56.018.825v4.936h-1.486v-4.883q0-.33-.009-.635a1.963,1.963,0,0,0-.1-.565,1.149,1.149,0,0,0-.507-.7,2.149,2.149,0,0,0-1.136-.243,2.861,2.861,0,0,0-1.591.391,1.069,1.069,0,0,0-.594.843v5.787h-1.486v-8.2h.088a.678.678,0,0,0,.1-.009A.854.854,0,0,1,743.432,690.637Z" transform="translate(-562.693 -687.325)"/><path class="g" d="M788.162,697.849a3.325,3.325,0,0,0,.883-.1,2.775,2.775,0,0,0,.647-.261,3.044,3.044,0,0,0,.463-.321,3.217,3.217,0,0,0,.315-.3,3.488,3.488,0,0,1,.34.521,1.022,1.022,0,0,1,.149.435.573.573,0,0,1-.088.29,1.118,1.118,0,0,1-.3.308,3.527,3.527,0,0,1-1.031.5,5.487,5.487,0,0,1-3.068-.032,3.286,3.286,0,0,1-1.272-.756,3.6,3.6,0,0,1-.866-1.364,5.857,5.857,0,0,1-.318-2.059,5.029,5.029,0,0,1,.323-1.894,3.8,3.8,0,0,1,.848-1.312,3.308,3.308,0,0,1,1.2-.756,4.055,4.055,0,0,1,1.39-.243,3.626,3.626,0,0,1,1.529.3,2.877,2.877,0,0,1,1.04.791,3.27,3.27,0,0,1,.594,1.147,4.741,4.741,0,0,1,.192,1.347c0,.162,0,.327-.009.5a4.1,4.1,0,0,1-.044.478h-5.506a3.362,3.362,0,0,0,.673,2.03A2.314,2.314,0,0,0,788.162,697.849Zm1.486-3.91a3.716,3.716,0,0,0-.1-.869,1.917,1.917,0,0,0-.322-.7,1.547,1.547,0,0,0-.6-.478,2.163,2.163,0,0,0-.914-.174,2,2,0,0,0-1.488.591,2.47,2.47,0,0,0-.653,1.634Z" transform="translate(-582.987 -687.325)"/></g><path class="d" d="M740.853,408.729a11.676,11.676,0,1,0,11.575,11.72A11.647,11.647,0,0,0,740.853,408.729Z" transform="translate(-193.685 -22.421)"/><path class="h" d="M582.974,421.55a4.922,4.922,0,0,0-1.408-.323,208.3,208.3,0,0,0-38.23.376c-1.522.1-2.923.217-4.158.337a153.791,153.791,0,0,0-18.291,3.068c-7.3,1.491-13.279,3.1-17.559,4.377q-1.077.315-2.15.647c-.629.2-1.254.4-1.877.617-2.245.741-3.453,1.207-3.453,1.207a64.481,64.481,0,0,1,4.294-9.436c2.758-5.056,5.874-9.981,8.152-15.286a18.461,18.461,0,0,0,1.74-6.583,10.033,10.033,0,0,0-.784-4.575,7.836,7.836,0,0,0-6.614-4.37c-4.532-.477-8.754,1.9-12.409,4.344a63.941,63.941,0,0,0-6.325,4.96c-4.36,3.787-8.5,7.829-12.717,11.784-2.226,2.088-4.467,4.229-6.8,6.244a134.305,134.305,0,0,1,8.165-11.821c5.171-6.759,11.121-12.846,16.648-19.294,1.5-1.746,2.965-3.517,4.382-5.332a28.457,28.457,0,0,0,3.993-6.15,9.619,9.619,0,0,0-.927-9.622,7.891,7.891,0,0,0-3.25-2.306,14.5,14.5,0,0,0-8.7-.367c-8.291,1.884-15.867,6.727-22.914,11.371A300.076,300.076,0,0,0,431.2,399.074c-13.2,11.387-28.211,25.268-28.22,25.276C389.155,437.592,387.068,440,387.068,440c-6.148,7.919,2.33,15.848,2.33,15.848s29.981-31.172,39.732-39.983c9.26-8.367,18.774-16.472,28.741-23.949,4.207-3.156,8.5-6.2,12.93-9.021a81.625,81.625,0,0,1,12.219-6.5c.576-.236,1.158-.454,1.744-.663-.858,1.07-1.752,2.11-2.6,3.137-1.994,2.405-4.058,4.749-6.137,7.079-3.875,4.342-7.832,8.628-11.437,13.21-2.639,3.354-5.118,6.845-7.448,10.43a79.552,79.552,0,0,0-6.543,11.687,17.732,17.732,0,0,0-1.582,5.643,8.821,8.821,0,0,0,.6,4.128,7.4,7.4,0,0,0,3.649,3.627l-1.26-.707a7.165,7.165,0,0,0,5.155,1.646,11.736,11.736,0,0,0,4.62-1.166A39.424,39.424,0,0,0,470,428.824c6.162-5.124,11.8-10.879,17.716-16.288a82.213,82.213,0,0,1,9.465-7.76c-.381.777-.78,1.543-1.185,2.3-3.017,5.56-6.335,10.975-8.923,16.764a43.392,43.392,0,0,0-2.922,8.962A9.6,9.6,0,0,0,485.836,441c2.03,2.465,5.071,3.123,8.079,2.94a20.747,20.747,0,0,0,5.862-1.586q.985-.366,1.979-.7l.18-.06.246-.081c6.556-2.148,26.479-7.738,59.127-8.893,9.491-.076,19.074-.1,19.074-.1h.019l12.6.414S590.25,423.562,582.974,421.55Zm-125.688,2.531-.022-.013.023.013Z" transform="translate(-22.749)"/></g></svg>