<svg xmlns="http://www.w3.org/2000/svg" width="197.528" height="162.679" viewBox="0 0 197.528 162.679"><defs><style>.a{fill:#fff;}</style></defs><g transform="translate(-3224.757 -350.32)"><g transform="translate(3224.757 439.773)"><path class="a" d="M3232.023,557.858a4.632,4.632,0,0,1,3.114.946,6.847,6.847,0,0,1,1.771,2.473l9.281,21.86,9.342-21.615a6.276,6.276,0,0,1,2.137-2.809,5.164,5.164,0,0,1,2.931-.855,18.784,18.784,0,0,1,2.442.153,7.771,7.771,0,0,1,1.771.4l2.931,40.605h-7.938l-1.893-27.111-8.3,18.563h-7.022l-8.06-17.769-1.771,26.317h-8l2.992-40.605a14.213,14.213,0,0,1,1.8-.366A16.265,16.265,0,0,1,3232.023,557.858Z" transform="translate(-3224.757 -555.904)"/><path class="a" d="M3364.288,598.926a22.248,22.248,0,0,1-.763,5.862,13.213,13.213,0,0,1-2.5,4.946,12.478,12.478,0,0,1-4.488,3.419,18.033,18.033,0,0,1-13.281.031,12.1,12.1,0,0,1-4.427-3.358,13.549,13.549,0,0,1-2.5-4.884,21.111,21.111,0,0,1-.793-5.832,18.7,18.7,0,0,1,.916-5.892,14.328,14.328,0,0,1,2.717-4.885A12.624,12.624,0,0,1,3343.71,585a15.668,15.668,0,0,1,6.411-1.221,15.953,15.953,0,0,1,6.564,1.221,11.734,11.734,0,0,1,4.4,3.3,13.187,13.187,0,0,1,2.442,4.823A21.589,21.589,0,0,1,3364.288,598.926Zm-8.3.061a21.727,21.727,0,0,0-.246-3.267,8.451,8.451,0,0,0-.921-2.839,5.554,5.554,0,0,0-1.84-1.985,6.022,6.022,0,0,0-5.922.031,5.908,5.908,0,0,0-1.9,2.045,9.317,9.317,0,0,0-1.013,2.839,17.014,17.014,0,0,0-.306,3.236,19.876,19.876,0,0,0,.276,3.3,10.057,10.057,0,0,0,.951,2.961,5.489,5.489,0,0,0,1.871,2.107,5.271,5.271,0,0,0,2.977.794,5.385,5.385,0,0,0,3.038-.794,5.486,5.486,0,0,0,1.871-2.107,9.481,9.481,0,0,0,.921-2.961A22.748,22.748,0,0,0,3355.984,598.987Z" transform="translate(-3286.741 -570.411)"/><path class="a" d="M3424.606,614.6h-8.854l-10.075-28.638a12.2,12.2,0,0,1,4.4-.794,5.9,5.9,0,0,1,2.412.427,4.59,4.59,0,0,1,1.588,1.16,5.746,5.746,0,0,1,1.038,1.8q.4,1.07.763,2.351l4.4,15.753,4.64-15.937a22.079,22.079,0,0,1,.793-2.32,6.754,6.754,0,0,1,1.038-1.771,3.811,3.811,0,0,1,1.5-1.1,5.676,5.676,0,0,1,2.167-.366,10.716,10.716,0,0,1,2.32.244,11.166,11.166,0,0,1,1.832.55Z" transform="translate(-3325.994 -571.187)"/><path class="a" d="M3488.623,557.879a4.135,4.135,0,0,1-1.313,3.175,4.7,4.7,0,0,1-6.32,0,4.184,4.184,0,0,1-1.282-3.175,4.288,4.288,0,0,1,1.282-3.206,4.614,4.614,0,0,1,6.32,0A4.236,4.236,0,0,1,3488.623,557.879Zm-.061,39.018a3.641,3.641,0,0,1-1.1.183q-.856.06-1.832.061a10.334,10.334,0,0,1-2.2-.214,3.889,3.889,0,0,1-1.679-.793,3.836,3.836,0,0,1-1.1-1.557,6.7,6.7,0,0,1-.4-2.5V567.648a2.781,2.781,0,0,1,.916-.153q.916-.091,1.893-.091a10.555,10.555,0,0,1,1.954.183,4.83,4.83,0,0,1,1.771.7,3.788,3.788,0,0,1,1.282,1.465,5.409,5.409,0,0,1,.488,2.473Z" transform="translate(-3367.419 -553.421)"/><path class="a" d="M3525.222,557.879a4.134,4.134,0,0,1-1.313,3.175,4.7,4.7,0,0,1-6.32,0,4.184,4.184,0,0,1-1.282-3.175,4.288,4.288,0,0,1,1.282-3.206,4.614,4.614,0,0,1,6.32,0A4.236,4.236,0,0,1,3525.222,557.879Zm-.061,39.018a3.642,3.642,0,0,1-1.1.183q-.856.06-1.832.061a10.334,10.334,0,0,1-2.2-.214,3.892,3.892,0,0,1-1.679-.793,3.842,3.842,0,0,1-1.1-1.557,6.7,6.7,0,0,1-.4-2.5V567.648a2.78,2.78,0,0,1,.916-.153q.915-.091,1.892-.091a10.562,10.562,0,0,1,1.955.183,4.826,4.826,0,0,1,1.771.7,3.781,3.781,0,0,1,1.282,1.465,5.4,5.4,0,0,1,.489,2.473Z" transform="translate(-3387.898 -553.421)"/><path class="a" d="M3562.458,613.52h-8.3V584.638c.2-.04.445-.081.727-.122.243-.04.525-.071.848-.092s.707-.03,1.152-.03a7.532,7.532,0,0,1,3.362.7,3.317,3.317,0,0,1,1.788,2.473,9.767,9.767,0,0,1,3.216-2.6,12.069,12.069,0,0,1,5.79-1.191q4.349,0,6.432,1.71a7.812,7.812,0,0,1,2.7,4.518,19.363,19.363,0,0,1,.4,3.054q.091,1.648.092,3.236V613.52h-8.3V596.667q0-1.343-.093-2.5a5.55,5.55,0,0,0-.491-1.984,2.806,2.806,0,0,0-1.29-1.283,5.54,5.54,0,0,0-2.489-.458,7.639,7.639,0,0,0-3.9.947,2.737,2.737,0,0,0-1.628,2.351Z" transform="translate(-3409.076 -570.411)"/><path class="a" d="M3632.185,598.341a10.667,10.667,0,0,1-.55-2.565q-.123-1.342-.122-2.687V564.757q.426-.061.916-.122.425-.06.916-.092t.976-.03a10.556,10.556,0,0,1,1.954.183,4.555,4.555,0,0,1,1.771.732,4.034,4.034,0,0,1,1.282,1.5,5.408,5.408,0,0,1,.488,2.473v4.274h8.548V579.9h-8.548v13.021q0,4.259,3.48,4.259a4.744,4.744,0,0,0,1.618-.274,9.608,9.608,0,0,0,1.374-.611,7.438,7.438,0,0,0,1.068-.7q.457-.366.641-.55a20.554,20.554,0,0,1,1.4,2.326,4.167,4.167,0,0,1,.488,1.845,2.451,2.451,0,0,1-.64,1.572,6.317,6.317,0,0,1-1.8,1.418,11.213,11.213,0,0,1-2.809,1.048,15.248,15.248,0,0,1-3.6.4,10.209,10.209,0,0,1-5.893-1.465A7.8,7.8,0,0,1,3632.185,598.341Z" transform="translate(-3452.364 -559.628)"/></g><g transform="translate(3234.236 499.327)"><g transform="translate(0 0)"><path class="a" d="M3247.641,689.9a.764.764,0,0,1,.49.146,1.1,1.1,0,0,1,.3.4l2.723,5.914,2.723-5.885a.868.868,0,0,1,.4-.461,1.143,1.143,0,0,1,.476-.11,2.24,2.24,0,0,1,.366.029,2.674,2.674,0,0,1,.278.059l.688,9.749h-1.2l-.527-7.7-2.6,5.475h-1.244l-2.474-5.226-.542,7.451h-1.215l.732-9.749c.068-.019.156-.039.264-.059A2.075,2.075,0,0,1,3247.641,689.9Z" transform="translate(-3246.279 -689.344)"/><path class="a" d="M3283.961,699.82a5.4,5.4,0,0,1-.176,1.383,3.335,3.335,0,0,1-.563,1.178,2.814,2.814,0,0,1-1,.82,3.3,3.3,0,0,1-1.493.307,3.412,3.412,0,0,1-1.486-.292,2.681,2.681,0,0,1-.988-.791,3.259,3.259,0,0,1-.557-1.164,5.467,5.467,0,0,1-.176-1.4,4.641,4.641,0,0,1,.206-1.391,3.293,3.293,0,0,1,.615-1.149,3.007,3.007,0,0,1,1.017-.783,3.255,3.255,0,0,1,1.427-.293,3.32,3.32,0,0,1,1.464.293,2.742,2.742,0,0,1,.981.783,3.206,3.206,0,0,1,.556,1.134A5.155,5.155,0,0,1,3283.961,699.82Zm-1.3,0a5,5,0,0,0-.081-.9,2.5,2.5,0,0,0-.286-.805,1.59,1.59,0,0,0-.573-.578,1.846,1.846,0,0,0-.955-.219,1.822,1.822,0,0,0-.933.219,1.687,1.687,0,0,0-.595.578,2.537,2.537,0,0,0-.316.805,4.325,4.325,0,0,0-.1.9,5.361,5.361,0,0,0,.081.922,2.459,2.459,0,0,0,.3.842,1.854,1.854,0,0,0,.588.615,1.683,1.683,0,0,0,.941.241,1.788,1.788,0,0,0,.97-.241,1.687,1.687,0,0,0,.588-.615,2.671,2.671,0,0,0,.286-.842A5.36,5.36,0,0,0,3282.658,699.82Z" transform="translate(-3263.76 -692.896)"/><path class="a" d="M3302.907,703.5h-1.274l-2.576-6.865a1.913,1.913,0,0,1,.659-.117.776.776,0,0,1,.651.271,2.5,2.5,0,0,1,.373.783l1.566,4.655,1.6-4.6a3.249,3.249,0,0,1,.38-.82.765.765,0,0,1,.674-.292,1.4,1.4,0,0,1,.329.037.968.968,0,0,1,.256.1Z" transform="translate(-3275.812 -693.045)"/><path class="a" d="M3323.1,690.436a.79.79,0,1,1-1.581,0,.827.827,0,0,1,.227-.6.795.795,0,0,1,1.127,0A.826.826,0,0,1,3323.1,690.436Zm-1.362,2.181h.088a.607.607,0,0,0,.081-.007.673.673,0,0,1,.1-.008,1.137,1.137,0,0,1,.7.212.905.905,0,0,1,.285.769v4.669a1.077,1.077,0,0,0,.125.6q.125.176.578.176v.527a2.024,2.024,0,0,1-.359.073,3.524,3.524,0,0,1-.447.029,1.319,1.319,0,0,1-.651-.131.834.834,0,0,1-.337-.351,1.329,1.329,0,0,1-.132-.491c-.014-.181-.022-.358-.022-.534Z" transform="translate(-3288.384 -689.177)"/><path class="a" d="M3336.594,697.654c0,.146.005.271.015.373a.564.564,0,0,0,.081.256.392.392,0,0,0,.2.154,1.214,1.214,0,0,0,.4.051v.527a2.037,2.037,0,0,1-.358.073,3.529,3.529,0,0,1-.447.029,1.32,1.32,0,0,1-.652-.131.831.831,0,0,1-.336-.352,1.32,1.32,0,0,1-.132-.491q-.022-.271-.022-.534v-8.958h.088a.617.617,0,0,0,.081-.007.626.626,0,0,1,.1-.008,1.136,1.136,0,0,1,.7.212.9.9,0,0,1,.285.769Z" transform="translate(-3296.119 -688.637)"/><path class="a" d="M3349.76,690.436a.79.79,0,1,1-1.581,0,.827.827,0,0,1,.227-.6.8.8,0,0,1,1.127,0A.829.829,0,0,1,3349.76,690.436Zm-1.361,2.181h.088a.62.62,0,0,0,.081-.007.662.662,0,0,1,.094-.008,1.135,1.135,0,0,1,.7.212.9.9,0,0,1,.286.769v4.669a1.073,1.073,0,0,0,.125.6q.124.176.578.176v.527a2.032,2.032,0,0,1-.359.073,3.512,3.512,0,0,1-.446.029,1.318,1.318,0,0,1-.651-.131.835.835,0,0,1-.337-.351,1.334,1.334,0,0,1-.132-.491q-.022-.271-.022-.534Z" transform="translate(-3303.299 -689.177)"/><path class="a" d="M3367.319,699.03H3366.1v-.6c-.078.079-.175.169-.293.267a2,2,0,0,1-.417.267,2.969,2.969,0,0,1-.549.2,2.61,2.61,0,0,1-.673.081,3.211,3.211,0,0,1-1.1-.19,2.415,2.415,0,0,1-.929-.607,2.92,2.92,0,0,1-.637-1.1,5.947,5.947,0,0,1,.008-3.331,3.3,3.3,0,0,1,.644-1.149,2.569,2.569,0,0,1,.937-.666,2.881,2.881,0,0,1,1.1-.219,2.59,2.59,0,0,1,1.12.219,2.907,2.907,0,0,1,.754.5v-4.055h.088a.62.62,0,0,0,.081-.007.628.628,0,0,1,.095-.008,1.165,1.165,0,0,1,.7.205.881.881,0,0,1,.285.761Zm-4.743-3.491a5.885,5.885,0,0,0,.088,1.051,2.409,2.409,0,0,0,.309.839,1.539,1.539,0,0,0,.58.554,1.833,1.833,0,0,0,.889.2,2.332,2.332,0,0,0,.654-.087,2.23,2.23,0,0,0,.522-.219,1.035,1.035,0,0,0,.338-.306.629.629,0,0,0,.118-.351V693.8h.014c-.059-.058-.135-.131-.228-.219a1.708,1.708,0,0,0-.353-.248,2.4,2.4,0,0,0-.492-.2,2.294,2.294,0,0,0-.632-.08,1.581,1.581,0,0,0-1.323.628A2.993,2.993,0,0,0,3362.575,695.539Z" transform="translate(-3310.626 -688.637)"/><path class="a" d="M3389.779,701.694a3.977,3.977,0,0,0,.029.549.584.584,0,0,0,.11.292.381.381,0,0,0,.22.125,1.779,1.779,0,0,0,.358.029v.586a2.027,2.027,0,0,1-.322.073,2.616,2.616,0,0,1-.4.029,1.671,1.671,0,0,1-.8-.183.8.8,0,0,1-.4-.651,3.327,3.327,0,0,1-.876.622,3.012,3.012,0,0,1-1.342.256,3.448,3.448,0,0,1-.766-.088,1.827,1.827,0,0,1-.7-.322,1.792,1.792,0,0,1-.518-.63,2.193,2.193,0,0,1-.2-1.01,1.93,1.93,0,0,1,.386-1.244,2.76,2.76,0,0,1,.956-.761,4.286,4.286,0,0,1,1.218-.38,9.277,9.277,0,0,1,1.189-.117h.306a2.907,2.907,0,0,1,.307.015v-.219a1.437,1.437,0,0,0-.315-1,1.625,1.625,0,0,0-1.208-.344,3.227,3.227,0,0,0-1.113.168,4,4,0,0,0-.878.461h-.146a2.245,2.245,0,0,1-.2-.41,1.084,1.084,0,0,1-.08-.351.461.461,0,0,1,.234-.359,2.447,2.447,0,0,1,.607-.3,4.8,4.8,0,0,1,.827-.2,5.591,5.591,0,0,1,.893-.073,4.127,4.127,0,0,1,1.246.161,1.923,1.923,0,0,1,.811.483,1.782,1.782,0,0,1,.437.805,4.428,4.428,0,0,1,.126,1.112Zm-1.23-1.874h-.422a7.876,7.876,0,0,0-.948.059,3.375,3.375,0,0,0-.874.22,1.655,1.655,0,0,0-.641.447,1.109,1.109,0,0,0-.248.754,1.227,1.227,0,0,0,.262.776,1.178,1.178,0,0,0,.976.337,2.339,2.339,0,0,0,.721-.11,2.761,2.761,0,0,0,.6-.271,1.587,1.587,0,0,0,.415-.352.59.59,0,0,0,.153-.366Z" transform="translate(-3323.44 -692.896)"/><path class="a" d="M3412.586,699.03h-1.215v-.6q-.118.119-.293.267a2.034,2.034,0,0,1-.417.267,3,3,0,0,1-.549.2,2.61,2.61,0,0,1-.673.081,3.209,3.209,0,0,1-1.1-.19,2.414,2.414,0,0,1-.93-.607,2.926,2.926,0,0,1-.636-1.1,5.947,5.947,0,0,1,.007-3.331,3.291,3.291,0,0,1,.644-1.149,2.569,2.569,0,0,1,.937-.666,2.885,2.885,0,0,1,1.105-.219,2.589,2.589,0,0,1,1.12.219,2.9,2.9,0,0,1,.754.5v-4.055h.088a.623.623,0,0,0,.081-.007.63.63,0,0,1,.095-.008,1.162,1.162,0,0,1,.7.205.881.881,0,0,1,.286.761Zm-4.743-3.491a5.818,5.818,0,0,0,.088,1.051,2.4,2.4,0,0,0,.309.839,1.534,1.534,0,0,0,.581.554,1.833,1.833,0,0,0,.89.2,2.333,2.333,0,0,0,.654-.087,2.228,2.228,0,0,0,.522-.219,1.032,1.032,0,0,0,.338-.306.623.623,0,0,0,.117-.351V693.8h.015q-.089-.087-.228-.219a1.724,1.724,0,0,0-.353-.248,2.427,2.427,0,0,0-.492-.2,2.3,2.3,0,0,0-.632-.08,1.582,1.582,0,0,0-1.323.628A2.994,2.994,0,0,0,3407.843,695.539Z" transform="translate(-3335.956 -688.637)"/><path class="a" d="M3443.836,699.738h-1.3V689.93a.49.49,0,0,0,.118-.015.9.9,0,0,0,.119-.007,1.1,1.1,0,0,1,.134-.007,1.274,1.274,0,0,1,.288.037.967.967,0,0,1,.3.132.72.72,0,0,1,.245.278,1.025,1.025,0,0,1,.1.475Z" transform="translate(-3356.096 -689.344)"/><path class="a" d="M3456.011,696.366a1.136,1.136,0,0,1,.607.168.765.765,0,0,1,.33.578,3.093,3.093,0,0,1,.915-.6,3.277,3.277,0,0,1,1.369-.263,2.321,2.321,0,0,1,1.522.439,2.023,2.023,0,0,1,.688,1.1,3.264,3.264,0,0,1,.088.651q.014.359.014.7v4.157H3460.3v-4.114c0-.185,0-.363-.007-.534a1.683,1.683,0,0,0-.081-.476.968.968,0,0,0-.425-.585,1.791,1.791,0,0,0-.951-.2,2.379,2.379,0,0,0-1.332.329.9.9,0,0,0-.5.71v4.875h-1.244v-6.909h.072a.626.626,0,0,0,.081-.007A.677.677,0,0,1,3456.011,696.366Z" transform="translate(-3363.499 -692.896)"/><path class="a" d="M3479.207,699.919a2.166,2.166,0,0,1-.125-.607q-.022-.33-.021-.651V691.81h.088a.606.606,0,0,0,.08-.008.686.686,0,0,1,.095-.008,1.175,1.175,0,0,1,.688.2.842.842,0,0,1,.293.741V693.9h2.181v1.069H3480.3v3.777q0,1.2.952,1.2a1.183,1.183,0,0,0,.439-.081,1.829,1.829,0,0,0,.366-.19,2.183,2.183,0,0,0,.271-.212,1.035,1.035,0,0,0,.139-.146,3.955,3.955,0,0,1,.3.425.76.76,0,0,1,.125.4.456.456,0,0,1-.132.286,1.344,1.344,0,0,1-.366.285,2.388,2.388,0,0,1-.579.22,3.036,3.036,0,0,1-.753.088,2.223,2.223,0,0,1-1.215-.292A1.589,1.589,0,0,1,3479.207,699.919Z" transform="translate(-3376.535 -690.404)"/><path class="a" d="M3498.381,702.441a2.767,2.767,0,0,0,.739-.088,2.322,2.322,0,0,0,.542-.22,2.555,2.555,0,0,0,.387-.27,2.73,2.73,0,0,0,.264-.256,3.011,3.011,0,0,1,.285.439.867.867,0,0,1,.125.366.485.485,0,0,1-.073.244.929.929,0,0,1-.249.259,2.934,2.934,0,0,1-.863.423,4.581,4.581,0,0,1-2.569-.027,2.748,2.748,0,0,1-1.065-.637,3.029,3.029,0,0,1-.725-1.149,4.949,4.949,0,0,1-.266-1.734,4.267,4.267,0,0,1,.271-1.6,3.2,3.2,0,0,1,.709-1.105,2.766,2.766,0,0,1,1-.637,3.378,3.378,0,0,1,1.164-.2,3.017,3.017,0,0,1,1.281.249,2.4,2.4,0,0,1,.871.666,2.747,2.747,0,0,1,.5.966,4.005,4.005,0,0,1,.161,1.134c0,.137,0,.276-.008.417a3.461,3.461,0,0,1-.036.4h-4.611a2.841,2.841,0,0,0,.564,1.709A1.929,1.929,0,0,0,3498.381,702.441Zm1.244-3.294a3.148,3.148,0,0,0-.081-.732,1.608,1.608,0,0,0-.269-.592,1.289,1.289,0,0,0-.5-.4,1.8,1.8,0,0,0-.766-.147,1.671,1.671,0,0,0-1.246.5,2.089,2.089,0,0,0-.547,1.376Z" transform="translate(-3385.406 -692.896)"/><path class="a" d="M3518.855,697.654c0,.146.005.271.015.373a.573.573,0,0,0,.08.256.4.4,0,0,0,.205.154,1.216,1.216,0,0,0,.4.051v.527a2.048,2.048,0,0,1-.359.073,3.512,3.512,0,0,1-.447.029,1.318,1.318,0,0,1-.651-.131.837.837,0,0,1-.337-.352,1.329,1.329,0,0,1-.131-.491q-.022-.271-.022-.534v-8.958h.088a.623.623,0,0,0,.081-.007.626.626,0,0,1,.1-.008,1.137,1.137,0,0,1,.7.212.905.905,0,0,1,.285.769Z" transform="translate(-3398.107 -688.637)"/><path class="a" d="M3532.021,690.436a.791.791,0,1,1-1.581,0,.826.826,0,0,1,.227-.6.8.8,0,0,1,1.127,0A.827.827,0,0,1,3532.021,690.436Zm-1.362,2.181h.088a.607.607,0,0,0,.081-.007.678.678,0,0,1,.1-.008,1.137,1.137,0,0,1,.7.212.9.9,0,0,1,.285.769v4.669a1.079,1.079,0,0,0,.125.6q.124.176.578.176v.527a2.035,2.035,0,0,1-.358.073,3.518,3.518,0,0,1-.447.029,1.321,1.321,0,0,1-.652-.131.839.839,0,0,1-.337-.351,1.334,1.334,0,0,1-.131-.491q-.022-.271-.022-.534Z" transform="translate(-3405.286 -689.177)"/><path class="a" d="M3549.581,702.807a7.425,7.425,0,0,1-.153,1.588,2.881,2.881,0,0,1-.535,1.179,2.4,2.4,0,0,1-1.024.739,4.438,4.438,0,0,1-1.625.256,4.863,4.863,0,0,1-1.2-.132,3.517,3.517,0,0,1-.848-.322,1.349,1.349,0,0,1-.374-.307.509.509,0,0,1-.11-.307.754.754,0,0,1,.168-.425,4.459,4.459,0,0,1,.3-.381,1.055,1.055,0,0,0,.19.169,3.283,3.283,0,0,0,.432.271,3.416,3.416,0,0,0,.637.256,2.779,2.779,0,0,0,.805.11,2.649,2.649,0,0,0,1.12-.2,1.511,1.511,0,0,0,.644-.559,2.113,2.113,0,0,0,.293-.86,8.383,8.383,0,0,0,.066-1.087v-.1c-.078.079-.176.169-.293.267a2,2,0,0,1-.417.267,2.991,2.991,0,0,1-.549.2,2.613,2.613,0,0,1-.673.082,3.211,3.211,0,0,1-1.1-.19,2.412,2.412,0,0,1-.929-.607,2.912,2.912,0,0,1-.637-1.1,5.15,5.15,0,0,1-.234-1.662,5.3,5.3,0,0,1,.234-1.669,3.274,3.274,0,0,1,.629-1.149,2.521,2.521,0,0,1,.922-.666,2.865,2.865,0,0,1,1.113-.219,2.792,2.792,0,0,1,1.156.212,2.464,2.464,0,0,1,.776.534.7.7,0,0,1,.337-.476,1.01,1.01,0,0,1,.512-.154,1.093,1.093,0,0,1,.132.007.956.956,0,0,0,.117.007.484.484,0,0,0,.117.015Zm-4.742-3.008a5.84,5.84,0,0,0,.088,1.051,2.4,2.4,0,0,0,.309.84,1.537,1.537,0,0,0,.58.554,1.834,1.834,0,0,0,.89.2,2.328,2.328,0,0,0,.654-.087,2.223,2.223,0,0,0,.522-.219,1.042,1.042,0,0,0,.338-.306.627.627,0,0,0,.118-.351v-3.416h.015c-.059-.058-.135-.131-.228-.219a1.733,1.733,0,0,0-.352-.248,2.425,2.425,0,0,0-.493-.2,2.292,2.292,0,0,0-.632-.08,1.581,1.581,0,0,0-1.323.628A3,3,0,0,0,3544.839,699.8Z" transform="translate(-3412.614 -692.896)"/><path class="a" d="M3570.1,702.441a2.772,2.772,0,0,0,.74-.088,2.316,2.316,0,0,0,.542-.22,2.6,2.6,0,0,0,.388-.27,2.776,2.776,0,0,0,.263-.256,2.972,2.972,0,0,1,.286.439.872.872,0,0,1,.124.366.489.489,0,0,1-.073.244.932.932,0,0,1-.249.259,2.936,2.936,0,0,1-.864.423,4.581,4.581,0,0,1-2.569-.027,2.755,2.755,0,0,1-1.065-.637,3.031,3.031,0,0,1-.725-1.149,4.949,4.949,0,0,1-.267-1.734,4.257,4.257,0,0,1,.271-1.6,3.2,3.2,0,0,1,.71-1.105,2.763,2.763,0,0,1,1-.637,3.384,3.384,0,0,1,1.164-.2,3.014,3.014,0,0,1,1.281.249,2.4,2.4,0,0,1,.871.666,2.76,2.76,0,0,1,.5.966,4.023,4.023,0,0,1,.161,1.134c0,.137,0,.276-.008.417a3.359,3.359,0,0,1-.036.4h-4.611a2.84,2.84,0,0,0,.564,1.709A1.93,1.93,0,0,0,3570.1,702.441Zm1.245-3.294a3.16,3.16,0,0,0-.081-.732,1.616,1.616,0,0,0-.27-.592,1.284,1.284,0,0,0-.5-.4,1.8,1.8,0,0,0-.765-.147,1.672,1.672,0,0,0-1.246.5,2.087,2.087,0,0,0-.547,1.376Z" transform="translate(-3425.538 -692.896)"/><path class="a" d="M3589.615,696.366a1.136,1.136,0,0,1,.608.168.765.765,0,0,1,.329.578,3.1,3.1,0,0,1,.915-.6,3.274,3.274,0,0,1,1.368-.263,2.322,2.322,0,0,1,1.522.439,2.025,2.025,0,0,1,.688,1.1,3.283,3.283,0,0,1,.088.651q.014.359.014.7v4.157H3593.9v-4.114c0-.185,0-.363-.007-.534a1.657,1.657,0,0,0-.081-.476.963.963,0,0,0-.424-.585,1.791,1.791,0,0,0-.951-.2,2.382,2.382,0,0,0-1.333.329.9.9,0,0,0-.5.71v4.875h-1.244v-6.909h.073a.628.628,0,0,0,.081-.007A.679.679,0,0,1,3589.615,696.366Z" transform="translate(-3438.259 -692.896)"/><path class="a" d="M3612.811,699.919a2.148,2.148,0,0,1-.125-.607q-.022-.33-.022-.651V691.81h.088a.606.606,0,0,0,.08-.008.692.692,0,0,1,.095-.008,1.174,1.174,0,0,1,.688.2.842.842,0,0,1,.293.741V693.9h2.181v1.069h-2.181v3.777q0,1.2.951,1.2a1.183,1.183,0,0,0,.439-.081,1.82,1.82,0,0,0,.366-.19,2.258,2.258,0,0,0,.271-.212,1.076,1.076,0,0,0,.138-.146,4,4,0,0,1,.3.425.764.764,0,0,1,.125.4.457.457,0,0,1-.132.286,1.353,1.353,0,0,1-.366.285,2.382,2.382,0,0,1-.578.22,3.034,3.034,0,0,1-.753.088,2.222,2.222,0,0,1-1.215-.292A1.591,1.591,0,0,1,3612.811,699.919Z" transform="translate(-3451.295 -690.404)"/><path class="a" d="M3631.986,702.441a2.764,2.764,0,0,0,.739-.088,2.322,2.322,0,0,0,.542-.22,2.531,2.531,0,0,0,.387-.27,2.735,2.735,0,0,0,.264-.256,3.009,3.009,0,0,1,.285.439.867.867,0,0,1,.125.366.487.487,0,0,1-.073.244.932.932,0,0,1-.249.259,2.928,2.928,0,0,1-.863.423,4.581,4.581,0,0,1-2.569-.027,2.754,2.754,0,0,1-1.066-.637,3.034,3.034,0,0,1-.724-1.149,4.949,4.949,0,0,1-.267-1.734,4.257,4.257,0,0,1,.271-1.6,3.2,3.2,0,0,1,.709-1.105,2.76,2.76,0,0,1,1-.637,3.375,3.375,0,0,1,1.163-.2,3.016,3.016,0,0,1,1.281.249,2.4,2.4,0,0,1,.871.666,2.751,2.751,0,0,1,.5.966,4,4,0,0,1,.161,1.134c0,.137,0,.276-.008.417a3.407,3.407,0,0,1-.037.4h-4.611a2.842,2.842,0,0,0,.564,1.709A1.929,1.929,0,0,0,3631.986,702.441Zm1.245-3.294a3.148,3.148,0,0,0-.081-.732,1.624,1.624,0,0,0-.269-.592,1.287,1.287,0,0,0-.5-.4,1.8,1.8,0,0,0-.765-.147,1.671,1.671,0,0,0-1.246.5,2.09,2.09,0,0,0-.547,1.376Z" transform="translate(-3460.166 -692.896)"/></g></g><path class="a" d="M3591.174,376.685a10.52,10.52,0,1,0,10.52,10.52A10.532,10.532,0,0,0,3591.174,376.685Z" transform="translate(-199.148 -14.753)"/><path class="a" d="M3424.418,397.107l9.491-.654s-2.591-6.932-8.408-7.883a3.916,3.916,0,0,0-1.12-.133,145.119,145.119,0,0,0-24.149,3.007,166.525,166.525,0,0,0-23.347,6.338q-2.834,1.012-5.61,2.174c-1.349.568-2.669,1.2-4,1.811a48.675,48.675,0,0,1,2.58-7.519c1.738-4.065,3.764-8.059,5.109-12.275a13.853,13.853,0,0,0,.823-5.146,7.535,7.535,0,0,0-.976-3.418,6.154,6.154,0,0,0-5.492-2.8c-3.561,0-6.652,2.142-9.3,4.292a49.68,49.68,0,0,0-4.518,4.276c-3.085,3.228-5.98,6.632-8.938,9.975-1.562,1.765-3.132,3.573-4.787,5.291a102.249,102.249,0,0,1,5.4-9.641c3.476-5.553,7.613-10.656,11.391-16,1.023-1.447,2.022-2.911,2.978-4.4a21.631,21.631,0,0,0,2.61-5,7.233,7.233,0,0,0-1.493-7.245,6.2,6.2,0,0,0-2.712-1.5,11.568,11.568,0,0,0-6.791.414c-6.293,2.093-11.793,6.38-16.9,10.472a232.886,232.886,0,0,0-21.871,20.428c-9.344,9.712-18.191,19.9-26.72,30.331q-1.8,2.2-3.584,4.423a5.553,5.553,0,0,0-1.135,2.044c-2.41,5.2,1.678,11.1,1.678,11.1l9.575-11.919c6.436-7.857,13.054-15.565,19.926-23.043,6.525-7.1,13.27-14.023,20.416-20.5,3.017-2.736,6.112-5.39,9.326-7.891a64.009,64.009,0,0,1,8.976-5.916c.428-.225.864-.438,1.3-.643-.581.882-1.192,1.744-1.772,2.593-1.356,1.988-2.773,3.935-4.2,5.872-2.663,3.612-5.395,7.186-7.83,10.958-1.781,2.761-3.428,5.614-4.951,8.526a60.257,60.257,0,0,0-4.147,9.41,13.287,13.287,0,0,0-.776,4.418,6.626,6.626,0,0,0,.8,3.092,5.749,5.749,0,0,0,3.129,2.468l-1.036-.437a5.69,5.69,0,0,0,4.139.842,9.3,9.3,0,0,0,3.5-1.255,30.71,30.71,0,0,0,5.936-4.931c4.378-4.388,8.3-9.214,12.462-13.8a63.731,63.731,0,0,1,6.734-6.656c-.233.621-.482,1.236-.736,1.843-1.9,4.469-4.042,8.852-5.589,13.461a32.574,32.574,0,0,0-1.552,7.049,7.236,7.236,0,0,0,1.968,6.1c1.776,1.714,4.192,1.972,6.516,1.593a16.445,16.445,0,0,0,4.429-1.673c.99-.478,1.994-.928,3-1.362a152.95,152.95,0,0,1,29.978-8.583q4.207-.8,8.45-1.391,2.683-.349,5.38-.595l-.022.046,6.4-.441h.015Zm-87.739,1.816-.018-.008.019.008Z" transform="translate(-32.141 0)"/></g></svg>