<svg xmlns="http://www.w3.org/2000/svg" width="28.6" height="20.241" viewBox="0 0 28.6 20.241"><defs><style>.a{fill:#004880;}</style></defs><g transform="translate(0 0)"><path class="a" d="M28.436,11.97a.736.736,0,0,0-.568-.27H25.085c-.687-1.812-1.582-3.587-2.6-4.257-3.519-2.315-12.852-2.315-16.37,0C5.1,8.114,4.206,9.891,3.516,11.7H.732a.733.733,0,0,0-.717.881l.412,2a.732.732,0,0,0,.717.584h.825A4.945,4.945,0,0,0,.782,18.394a4.841,4.841,0,0,0,1.53,3.635c.011.01.022.016.032.026v2.8a1.1,1.1,0,0,0,1.1,1.1H6.01a1.1,1.1,0,0,0,1.1-1.1V23.727H21.491V24.85a1.1,1.1,0,0,0,1.1,1.1h2.567a1.1,1.1,0,0,0,1.1-1.1V22.11a5.024,5.024,0,0,0,.321-6.949h.879a.73.73,0,0,0,.717-.584l.413-2A.738.738,0,0,0,28.436,11.97ZM7.321,9.278c2.8-1.846,11.152-1.846,13.955,0,.545.357,1.246,1.8,1.888,3.571H5.435C6.076,11.081,6.777,9.637,7.321,9.278ZM4.036,18.669A2.161,2.161,0,1,1,6.2,20.83,2.161,2.161,0,0,1,4.036,18.669ZM22.431,20.83a2.161,2.161,0,1,1,2.161-2.161A2.161,2.161,0,0,1,22.431,20.83Z" transform="translate(0 -5.707)"/></g></svg>